<svg width="80" height="80" viewBox="0 0 80 80" xmlns="http://www.w3.org/2000/svg">
  <!-- Background Circle -->
  <circle cx="40" cy="40" r="38" fill="#1a1a1a" stroke="#333" stroke-width="2"/>
  
  <!-- Robot Body -->
  <rect x="20" y="28" width="40" height="32" fill="#2d2d2d" rx="6"/>
  
  <!-- Gradient Overlay on Body -->
  <rect x="20" y="28" width="40" height="32" fill="url(#bodyGradient)" opacity="0.3" rx="6"/>
  
  <!-- Robot Eyes -->
  <circle cx="30" cy="38" r="5" fill="#00ff88"/>
  <circle cx="50" cy="38" r="5" fill="#00ff88"/>
  
  <!-- Eye Glow Effect -->
  <circle cx="30" cy="38" r="7" fill="#00ff88" opacity="0.3"/>
  <circle cx="50" cy="38" r="7" fill="#00ff88" opacity="0.3"/>
  
  <!-- Robot Mouth/Display -->
  <rect x="32" y="48" width="16" height="6" fill="#00ff88" rx="3"/>
  
  <!-- Antenna -->
  <line x1="40" y1="28" x2="40" y2="20" stroke="#666" stroke-width="2"/>
  <circle cx="40" cy="18" r="3" fill="#00ff88"/>
  
  <!-- Side Indicators (Finance Related) -->
  <rect x="15" y="35" width="3" height="8" fill="#00ff88" rx="1"/>
  <rect x="15" y="45" width="3" height="6" fill="#ffbd2e" rx="1"/>
  
  <rect x="62" y="35" width="3" height="10" fill="#00ff88" rx="1"/>
  <rect x="62" y="47" width="3" height="4" fill="#ff5f57" rx="1"/>
  
  <!-- Gradient Definitions -->
  <defs>
    <linearGradient id="bodyGradient" x1="0%" y1="0%" x2="100%" y2="100%">
      <stop offset="0%" style="stop-color:#00ff88;stop-opacity:0.2" />
      <stop offset="100%" style="stop-color:#8b5cf6;stop-opacity:0.2" />
    </linearGradient>
  </defs>
</svg>